<svg xmlns="http://www.w3.org/2000/svg" viewBox="0 0 128 128">
  <defs>
    <linearGradient id="gradient" x1="0%" y1="0%" x2="100%" y2="100%">
      <stop offset="0%" style="stop-color:#3b82f6"/>
      <stop offset="100%" style="stop-color:#8b5cf6"/>
    </linearGradient>
  </defs>

  <!-- Background circle -->
  <circle cx="64" cy="64" r="60" fill="url(#gradient)"/>

  <!-- Book icon -->
  <g fill="white" transform="translate(32, 32)">
    <!-- Left page -->
    <path d="M4 8 L28 8 L28 56 L4 56 Q2 56 2 54 L2 10 Q2 8 4 8 Z" opacity="0.95"/>
    <!-- Right page -->
    <path d="M28 8 L52 8 Q54 8 54 10 L54 54 Q54 56 52 56 L28 56 L28 8 Z" opacity="0.85"/>
    <!-- Book spine -->
    <rect x="27" y="8" width="2" height="48" fill="#e0e7ff" opacity="0.5"/>
    <!-- Page lines -->
    <rect x="8" y="20" width="14" height="2" rx="1" fill="white" opacity="0.6"/>
    <rect x="8" y="28" width="14" height="2" rx="1" fill="white" opacity="0.6"/>
    <rect x="8" y="36" width="10" height="2" rx="1" fill="white" opacity="0.6"/>
    <rect x="34" y="20" width="14" height="2" rx="1" fill="white" opacity="0.5"/>
    <rect x="34" y="28" width="14" height="2" rx="1" fill="white" opacity="0.5"/>
    <rect x="34" y="36" width="10" height="2" rx="1" fill="white" opacity="0.5"/>
  </g>
</svg>
